G04*
G04 #@! TF.GenerationSoftware,Altium Limited,Altium Designer,23.3.1 (30)*
G04*
G04 Layer_Color=32896*
%FSLAX26Y26*%
%MOIN*%
G70*
G04*
G04 #@! TF.SameCoordinates,F690B318-04D5-434D-AB11-BD4B9249E199*
G04*
G04*
G04 #@! TF.FilePolarity,Positive*
G04*
G01*
G75*
%ADD13C,0.007874*%
%ADD15C,0.010000*%
D13*
X3471558Y1622803D02*
G03*
X3473311Y1745989I-41558J62197D01*
G01*
X3386689D02*
G03*
X3388442Y1622803I43311J-60989D01*
G01*
X3386689Y2370989D02*
G03*
X3388442Y2247803I43311J-60989D01*
G01*
X3471558D02*
G03*
X3473311Y2370989I-41558J62197D01*
G01*
X3530000Y1920000D02*
Y2120000D01*
X3480000Y1920000D02*
X3530000D01*
X3480000Y2120000D02*
X3530000D01*
X3480000Y1920000D02*
Y2120000D01*
X3530000Y2086666D02*
X3663333D01*
X3680000Y2070000D01*
X3663333Y2053333D02*
X3680000Y2070000D01*
X3530000Y2053333D02*
X3663333D01*
X3530000Y1986667D02*
X3663333D01*
X3680000Y1970000D01*
X3663333Y1953334D02*
X3680000Y1970000D01*
X3530000Y1953334D02*
X3663333D01*
X3420157Y1788150D02*
X3439843D01*
X3430000Y1778307D02*
Y1797992D01*
Y2403307D02*
Y2422992D01*
X3420157Y2413150D02*
X3439843D01*
D15*
X3451326Y1874005D02*
Y1905995D01*
X3435332D01*
X3430000Y1900663D01*
Y1890000D01*
X3435332Y1884668D01*
X3451326D01*
X3419337Y1874005D02*
X3408673D01*
X3414005D01*
Y1905995D01*
X3419337Y1900663D01*
X3456658Y1585995D02*
Y1554005D01*
X3440663D01*
X3435332Y1559337D01*
Y1580663D01*
X3440663Y1585995D01*
X3456658D01*
X3403342Y1554005D02*
X3424668D01*
X3403342Y1575332D01*
Y1580663D01*
X3408673Y1585995D01*
X3419337D01*
X3424668Y1580663D01*
X3451326Y2205995D02*
Y2174005D01*
X3435332D01*
X3430000Y2179337D01*
Y2200663D01*
X3435332Y2205995D01*
X3451326D01*
X3419337Y2174005D02*
X3408673D01*
X3414005D01*
Y2205995D01*
X3419337Y2200663D01*
M02*
