G04*
G04 #@! TF.GenerationSoftware,Altium Limited,Altium Designer,23.3.1 (30)*
G04*
G04 Layer_Color=65535*
%FSLAX26Y26*%
%MOIN*%
G70*
G04*
G04 #@! TF.SameCoordinates,F690B318-04D5-434D-AB11-BD4B9249E199*
G04*
G04*
G04 #@! TF.FilePolarity,Positive*
G04*
G01*
G75*
%ADD10C,0.009842*%
%ADD11C,0.015748*%
%ADD12C,0.020000*%
%ADD13C,0.007874*%
%ADD14C,0.012000*%
%ADD15C,0.010000*%
G36*
X2644566Y1381991D02*
X2649695D01*
Y1381258D01*
X2652626D01*
Y1380525D01*
X2654825D01*
Y1379793D01*
X2656291D01*
Y1379060D01*
X2657756D01*
Y1378327D01*
X2659222D01*
Y1377594D01*
X2660687D01*
Y1376861D01*
X2662153D01*
Y1376128D01*
X2663619D01*
Y1375396D01*
X2665084D01*
Y1374663D01*
X2666550D01*
Y1373930D01*
X2667283D01*
Y1373197D01*
X2668748D01*
Y1372464D01*
X2670214D01*
Y1371732D01*
X2671680D01*
Y1370999D01*
X2672412D01*
Y1370266D01*
X2673878D01*
Y1369533D01*
X2675344D01*
Y1368800D01*
X2676077D01*
Y1368068D01*
X2677542D01*
Y1367335D01*
X2679008D01*
Y1366602D01*
X2680473D01*
Y1365869D01*
X2681206D01*
Y1365136D01*
X2682672D01*
Y1364403D01*
X2684137D01*
Y1363671D01*
X2685603D01*
Y1362938D01*
X2686336D01*
Y1362205D01*
X2687802D01*
Y1361472D01*
X2689267D01*
Y1360739D01*
X2690733D01*
Y1360006D01*
X2691466D01*
Y1359274D01*
X2692931D01*
Y1358541D01*
X2694397D01*
Y1357808D01*
X2695130D01*
Y1357075D01*
X2696595D01*
Y1356342D01*
X2698061D01*
Y1355610D01*
X2699527D01*
Y1354877D01*
X2700259D01*
Y1354144D01*
X2701725D01*
Y1353411D01*
X2703191D01*
Y1352678D01*
X2704656D01*
Y1351946D01*
X2705389D01*
Y1351213D01*
X2706855D01*
Y1350480D01*
X2708320D01*
Y1349747D01*
X2709786D01*
Y1349014D01*
X2710519D01*
Y1348282D01*
X2711984D01*
Y1347549D01*
X2713450D01*
Y1346816D01*
X2714183D01*
Y1346083D01*
X2715648D01*
Y1345350D01*
X2717114D01*
Y1344617D01*
X2718580D01*
Y1343885D01*
X2719313D01*
Y1343152D01*
X2720778D01*
Y1342419D01*
X2722244D01*
Y1341686D01*
X2723709D01*
Y1340953D01*
X2724442D01*
Y1340220D01*
X2725908D01*
Y1339488D01*
X2727374D01*
Y1338755D01*
X2728106D01*
Y1338022D01*
X2729572D01*
Y1337289D01*
X2731038D01*
Y1336556D01*
X2732503D01*
Y1335824D01*
X2733236D01*
Y1335091D01*
X2734702D01*
Y1334358D01*
X2736167D01*
Y1333625D01*
X2737633D01*
Y1332892D01*
X2738366D01*
Y1332160D01*
X2739831D01*
Y1331427D01*
X2741297D01*
Y1330694D01*
X2742763D01*
Y1329961D01*
X2743495D01*
Y1329228D01*
X2744961D01*
Y1328495D01*
X2746427D01*
Y1327763D01*
X2747160D01*
Y1327030D01*
X2748625D01*
Y1326297D01*
X2750091D01*
Y1325564D01*
X2751556D01*
Y1324831D01*
X2752289D01*
Y1324099D01*
X2753755D01*
Y1323366D01*
X2755220D01*
Y1322633D01*
X2756686D01*
Y1321900D01*
X2757419D01*
Y1321167D01*
X2758885D01*
Y1320435D01*
X2760350D01*
Y1319702D01*
X2761816D01*
Y1318969D01*
X2762549D01*
Y1318236D01*
X2764014D01*
Y1316771D01*
X2762549D01*
Y1316038D01*
X2761083D01*
Y1315305D01*
X2759617D01*
Y1314572D01*
X2758885D01*
Y1313839D01*
X2757419D01*
Y1313106D01*
X2755953D01*
Y1312374D01*
X2755220D01*
Y1311641D01*
X2753755D01*
Y1310908D01*
X2752289D01*
Y1310175D01*
X2750824D01*
Y1309442D01*
X2750091D01*
Y1308709D01*
X2748625D01*
Y1307977D01*
X2747160D01*
Y1307244D01*
X2745694D01*
Y1306511D01*
X2744961D01*
Y1305778D01*
X2743495D01*
Y1305045D01*
X2742030D01*
Y1304313D01*
X2740564D01*
Y1303580D01*
X2739831D01*
Y1302847D01*
X2738366D01*
Y1302114D01*
X2736900D01*
Y1301381D01*
X2736167D01*
Y1300649D01*
X2734702D01*
Y1299916D01*
X2733236D01*
Y1299183D01*
X2731770D01*
Y1298450D01*
X2731038D01*
Y1297717D01*
X2729572D01*
Y1296985D01*
X2728106D01*
Y1296252D01*
X2726641D01*
Y1295519D01*
X2725908D01*
Y1294786D01*
X2724442D01*
Y1294053D01*
X2722977D01*
Y1293320D01*
X2722244D01*
Y1292588D01*
X2720778D01*
Y1291855D01*
X2719313D01*
Y1291122D01*
X2717847D01*
Y1290389D01*
X2717114D01*
Y1289656D01*
X2715648D01*
Y1288924D01*
X2714183D01*
Y1288191D01*
X2712717D01*
Y1287458D01*
X2711984D01*
Y1286725D01*
X2710519D01*
Y1285992D01*
X2709053D01*
Y1285259D01*
X2707588D01*
Y1284527D01*
X2706855D01*
Y1283794D01*
X2705389D01*
Y1283061D01*
X2703923D01*
Y1282328D01*
X2703191D01*
Y1281595D01*
X2701725D01*
Y1280862D01*
X2700259D01*
Y1280130D01*
X2698794D01*
Y1279397D01*
X2698061D01*
Y1278664D01*
X2696595D01*
Y1277931D01*
X2695130D01*
Y1277198D01*
X2693664D01*
Y1276466D01*
X2692931D01*
Y1275733D01*
X2691466D01*
Y1275000D01*
X2690000D01*
Y1274267D01*
X2688534D01*
Y1273534D01*
X2687802D01*
Y1272802D01*
X2686336D01*
Y1272069D01*
X2684870D01*
Y1271336D01*
X2684137D01*
Y1270603D01*
X2682672D01*
Y1269870D01*
X2681206D01*
Y1269138D01*
X2679741D01*
Y1268405D01*
X2679008D01*
Y1267672D01*
X2677542D01*
Y1266939D01*
X2676077D01*
Y1266206D01*
X2674611D01*
Y1265473D01*
X2673878D01*
Y1264741D01*
X2672412D01*
Y1264008D01*
X2670947D01*
Y1263275D01*
X2669481D01*
Y1262542D01*
X2668748D01*
Y1261809D01*
X2667283D01*
Y1261077D01*
X2665817D01*
Y1260344D01*
X2665084D01*
Y1259611D01*
X2663619D01*
Y1258878D01*
X2662153D01*
Y1258145D01*
X2660687D01*
Y1257412D01*
X2659955D01*
Y1256680D01*
X2658489D01*
Y1255947D01*
X2657023D01*
Y1255214D01*
X2655558D01*
Y1254481D01*
X2654825D01*
Y1253748D01*
X2653359D01*
Y1253016D01*
X2651894D01*
Y1324099D01*
X2651161D01*
Y1325564D01*
X2650428D01*
Y1327030D01*
X2649695D01*
Y1327763D01*
X2648962D01*
Y1328495D01*
X2648230D01*
Y1329228D01*
X2646764D01*
Y1329961D01*
X2645298D01*
Y1330694D01*
X2642367D01*
Y1331427D01*
X2640901D01*
Y1330694D01*
X2637970D01*
Y1329961D01*
X2636505D01*
Y1329228D01*
X2635772D01*
Y1328495D01*
X2635039D01*
Y1327763D01*
X2634306D01*
Y1327030D01*
X2633573D01*
Y1326297D01*
X2632840D01*
Y1324831D01*
X2632108D01*
Y1322633D01*
X2631375D01*
Y1253016D01*
X2629909D01*
Y1253748D01*
X2629176D01*
Y1254481D01*
X2627711D01*
Y1255214D01*
X2626245D01*
Y1255947D01*
X2624780D01*
Y1256680D01*
X2624047D01*
Y1257412D01*
X2622581D01*
Y1258145D01*
X2621115D01*
Y1258878D01*
X2619650D01*
Y1259611D01*
X2618917D01*
Y1260344D01*
X2617451D01*
Y1261077D01*
X2615986D01*
Y1261809D01*
X2615253D01*
Y1262542D01*
X2613787D01*
Y1263275D01*
X2612322D01*
Y1264008D01*
X2610856D01*
Y1264741D01*
X2610123D01*
Y1265473D01*
X2608658D01*
Y1266206D01*
X2607192D01*
Y1266939D01*
X2605726D01*
Y1267672D01*
X2604994D01*
Y1268405D01*
X2603528D01*
Y1269138D01*
X2602062D01*
Y1269870D01*
X2601329D01*
Y1270603D01*
X2599864D01*
Y1271336D01*
X2598398D01*
Y1272069D01*
X2596933D01*
Y1272802D01*
X2596200D01*
Y1273534D01*
X2594734D01*
Y1274267D01*
X2593269D01*
Y1275000D01*
X2591803D01*
Y1275733D01*
X2591070D01*
Y1276466D01*
X2589604D01*
Y1277198D01*
X2588139D01*
Y1277931D01*
X2586673D01*
Y1278664D01*
X2585940D01*
Y1279397D01*
X2584475D01*
Y1280130D01*
X2583009D01*
Y1280862D01*
X2582276D01*
Y1281595D01*
X2580811D01*
Y1282328D01*
X2579345D01*
Y1283061D01*
X2577879D01*
Y1283794D01*
X2577147D01*
Y1284527D01*
X2575681D01*
Y1285259D01*
X2574215D01*
Y1285992D01*
X2572750D01*
Y1286725D01*
X2572017D01*
Y1287458D01*
X2570551D01*
Y1288191D01*
X2569086D01*
Y1288924D01*
X2567620D01*
Y1289656D01*
X2566887D01*
Y1290389D01*
X2565421D01*
Y1291122D01*
X2563956D01*
Y1291855D01*
X2563223D01*
Y1292588D01*
X2561758D01*
Y1293320D01*
X2560292D01*
Y1294053D01*
X2558826D01*
Y1294786D01*
X2558093D01*
Y1295519D01*
X2556628D01*
Y1296252D01*
X2555162D01*
Y1296985D01*
X2553697D01*
Y1297717D01*
X2552964D01*
Y1298450D01*
X2551498D01*
Y1299183D01*
X2550032D01*
Y1299916D01*
X2548567D01*
Y1300649D01*
X2547834D01*
Y1301381D01*
X2546368D01*
Y1302114D01*
X2544903D01*
Y1302847D01*
X2544170D01*
Y1303580D01*
X2542704D01*
Y1304313D01*
X2541239D01*
Y1305045D01*
X2539773D01*
Y1305778D01*
X2539040D01*
Y1306511D01*
X2537575D01*
Y1307244D01*
X2536109D01*
Y1307977D01*
X2534643D01*
Y1308709D01*
X2533910D01*
Y1309442D01*
X2532445D01*
Y1310175D01*
X2530979D01*
Y1310908D01*
X2530246D01*
Y1311641D01*
X2528781D01*
Y1312374D01*
X2527315D01*
Y1313106D01*
X2525849D01*
Y1313839D01*
X2525117D01*
Y1314572D01*
X2523651D01*
Y1315305D01*
X2522186D01*
Y1316038D01*
X2520720D01*
Y1316771D01*
X2519987D01*
Y1317503D01*
X2519254D01*
Y1318236D01*
X2520720D01*
Y1318969D01*
X2522186D01*
Y1319702D01*
X2523651D01*
Y1320435D01*
X2524384D01*
Y1321167D01*
X2525849D01*
Y1321900D01*
X2527315D01*
Y1322633D01*
X2528048D01*
Y1323366D01*
X2529514D01*
Y1324099D01*
X2530979D01*
Y1324831D01*
X2532445D01*
Y1325564D01*
X2533178D01*
Y1326297D01*
X2534643D01*
Y1327030D01*
X2536109D01*
Y1327763D01*
X2537575D01*
Y1328495D01*
X2538307D01*
Y1329228D01*
X2539773D01*
Y1329961D01*
X2541239D01*
Y1330694D01*
X2542704D01*
Y1331427D01*
X2543437D01*
Y1332160D01*
X2544903D01*
Y1332892D01*
X2546368D01*
Y1333625D01*
X2547101D01*
Y1334358D01*
X2548567D01*
Y1335091D01*
X2550032D01*
Y1335824D01*
X2551498D01*
Y1336556D01*
X2552231D01*
Y1337289D01*
X2553697D01*
Y1338022D01*
X2555162D01*
Y1338755D01*
X2556628D01*
Y1339488D01*
X2557361D01*
Y1340220D01*
X2558826D01*
Y1340953D01*
X2560292D01*
Y1341686D01*
X2561758D01*
Y1342419D01*
X2562490D01*
Y1343152D01*
X2563956D01*
Y1343885D01*
X2565421D01*
Y1344617D01*
X2566154D01*
Y1345350D01*
X2567620D01*
Y1346083D01*
X2569086D01*
Y1346816D01*
X2570551D01*
Y1347549D01*
X2571284D01*
Y1348282D01*
X2572750D01*
Y1349014D01*
X2574215D01*
Y1349747D01*
X2575681D01*
Y1350480D01*
X2576414D01*
Y1351213D01*
X2577879D01*
Y1351946D01*
X2579345D01*
Y1352678D01*
X2580078D01*
Y1353411D01*
X2581544D01*
Y1354144D01*
X2583009D01*
Y1354877D01*
X2584475D01*
Y1355610D01*
X2585207D01*
Y1356342D01*
X2586673D01*
Y1357075D01*
X2588139D01*
Y1357808D01*
X2589604D01*
Y1358541D01*
X2590337D01*
Y1359274D01*
X2591803D01*
Y1360006D01*
X2593269D01*
Y1360739D01*
X2594734D01*
Y1361472D01*
X2595467D01*
Y1362205D01*
X2596933D01*
Y1362938D01*
X2598398D01*
Y1363671D01*
X2599131D01*
Y1364403D01*
X2600597D01*
Y1365136D01*
X2602062D01*
Y1365869D01*
X2603528D01*
Y1366602D01*
X2604261D01*
Y1367335D01*
X2605726D01*
Y1368068D01*
X2607192D01*
Y1368800D01*
X2608658D01*
Y1369533D01*
X2609390D01*
Y1370266D01*
X2610856D01*
Y1370999D01*
X2612322D01*
Y1371732D01*
X2613787D01*
Y1372464D01*
X2614520D01*
Y1373197D01*
X2615986D01*
Y1373930D01*
X2617451D01*
Y1374663D01*
X2618184D01*
Y1375396D01*
X2619650D01*
Y1376128D01*
X2621115D01*
Y1376861D01*
X2622581D01*
Y1377594D01*
X2624047D01*
Y1378327D01*
X2625512D01*
Y1379060D01*
X2626978D01*
Y1379793D01*
X2629176D01*
Y1380525D01*
X2631375D01*
Y1381258D01*
X2634306D01*
Y1381991D01*
X2639436D01*
Y1382724D01*
X2644566D01*
Y1381991D01*
D02*
G37*
G36*
X2973599Y1223703D02*
Y1222970D01*
Y1168742D01*
X2946485D01*
Y1251550D01*
X2945752D01*
Y1250084D01*
X2945019D01*
Y1248619D01*
X2944287D01*
Y1247153D01*
X2943554D01*
Y1245688D01*
X2942821D01*
Y1244222D01*
X2942088D01*
Y1242756D01*
X2941355D01*
Y1241291D01*
X2940623D01*
Y1239825D01*
X2939890D01*
Y1238359D01*
X2939157D01*
Y1236894D01*
X2938424D01*
Y1235428D01*
X2937691D01*
Y1233962D01*
X2936959D01*
Y1232497D01*
X2936226D01*
Y1231764D01*
X2935493D01*
Y1230298D01*
X2934760D01*
Y1228833D01*
X2934027D01*
Y1227367D01*
X2933294D01*
Y1225901D01*
X2932562D01*
Y1224436D01*
X2931829D01*
Y1223703D01*
X2931096D01*
Y1222237D01*
X2930363D01*
Y1220772D01*
X2929630D01*
Y1219306D01*
X2928898D01*
Y1217841D01*
X2928165D01*
Y1217108D01*
X2927432D01*
Y1215642D01*
X2926699D01*
Y1214176D01*
X2925966D01*
Y1212711D01*
X2925233D01*
Y1211245D01*
X2924501D01*
Y1209780D01*
X2923768D01*
Y1209047D01*
X2923035D01*
Y1207581D01*
X2922302D01*
Y1206116D01*
X2921569D01*
Y1204650D01*
X2920837D01*
Y1203184D01*
X2920104D01*
Y1202451D01*
X2919371D01*
Y1200986D01*
X2918638D01*
Y1199520D01*
X2917905D01*
Y1198054D01*
X2917173D01*
Y1196589D01*
X2916440D01*
Y1195856D01*
X2915707D01*
Y1194390D01*
X2914974D01*
Y1192925D01*
X2914241D01*
Y1191459D01*
X2913508D01*
Y1189994D01*
X2912776D01*
Y1188528D01*
X2912043D01*
Y1189261D01*
X2911310D01*
Y1190726D01*
X2910577D01*
Y1191459D01*
X2909844D01*
Y1192925D01*
X2909111D01*
Y1194390D01*
X2908379D01*
Y1195856D01*
X2907646D01*
Y1197322D01*
X2906913D01*
Y1198787D01*
X2906180D01*
Y1200253D01*
X2905448D01*
Y1200986D01*
X2904715D01*
Y1202451D01*
X2903982D01*
Y1203917D01*
X2903249D01*
Y1205383D01*
X2902516D01*
Y1206848D01*
X2901783D01*
Y1208314D01*
X2901051D01*
Y1209047D01*
X2900318D01*
Y1210512D01*
X2899585D01*
Y1211978D01*
X2898852D01*
Y1213444D01*
X2898119D01*
Y1214909D01*
X2897387D01*
Y1216375D01*
X2896654D01*
Y1217841D01*
X2895921D01*
Y1218573D01*
X2895188D01*
Y1220039D01*
X2894455D01*
Y1221505D01*
X2893722D01*
Y1222970D01*
X2892990D01*
Y1224436D01*
X2892257D01*
Y1225901D01*
X2891524D01*
Y1227367D01*
X2890791D01*
Y1228100D01*
X2890058D01*
Y1229565D01*
X2889326D01*
Y1231031D01*
X2888593D01*
Y1232497D01*
X2887860D01*
Y1233962D01*
X2887127D01*
Y1235428D01*
X2886394D01*
Y1236894D01*
X2885662D01*
Y1238359D01*
X2884929D01*
Y1239825D01*
X2884196D01*
Y1241291D01*
X2883463D01*
Y1242756D01*
X2882730D01*
Y1244222D01*
X2881997D01*
Y1245688D01*
X2881265D01*
Y1247153D01*
X2880532D01*
Y1249351D01*
X2879799D01*
Y1250817D01*
X2879066D01*
Y1252283D01*
X2878333D01*
Y1253748D01*
X2877601D01*
Y1168742D01*
X2851219D01*
Y1296985D01*
X2881265D01*
Y1295519D01*
X2881997D01*
Y1294053D01*
X2882730D01*
Y1292588D01*
X2883463D01*
Y1291122D01*
X2884196D01*
Y1289656D01*
X2884929D01*
Y1288191D01*
X2885662D01*
Y1286725D01*
X2886394D01*
Y1285259D01*
X2887127D01*
Y1284527D01*
X2887860D01*
Y1283061D01*
X2888593D01*
Y1281595D01*
X2889326D01*
Y1280130D01*
X2890058D01*
Y1278664D01*
X2890791D01*
Y1277198D01*
X2891524D01*
Y1275733D01*
X2892257D01*
Y1274267D01*
X2892990D01*
Y1272802D01*
X2893722D01*
Y1271336D01*
X2894455D01*
Y1269870D01*
X2895188D01*
Y1268405D01*
X2895921D01*
Y1267672D01*
X2896654D01*
Y1266206D01*
X2897387D01*
Y1264741D01*
X2898119D01*
Y1263275D01*
X2898852D01*
Y1261809D01*
X2899585D01*
Y1260344D01*
X2900318D01*
Y1258878D01*
X2901051D01*
Y1257412D01*
X2901783D01*
Y1255947D01*
X2902516D01*
Y1254481D01*
X2903249D01*
Y1253016D01*
X2903982D01*
Y1252283D01*
X2904715D01*
Y1250817D01*
X2905448D01*
Y1249351D01*
X2906180D01*
Y1247886D01*
X2906913D01*
Y1246420D01*
X2907646D01*
Y1244955D01*
X2908379D01*
Y1243489D01*
X2909111D01*
Y1242023D01*
X2909844D01*
Y1240558D01*
X2910577D01*
Y1239092D01*
X2911310D01*
Y1237627D01*
X2912043D01*
Y1236894D01*
X2912776D01*
Y1238359D01*
X2913508D01*
Y1239825D01*
X2914241D01*
Y1241291D01*
X2914974D01*
Y1242756D01*
X2915707D01*
Y1244222D01*
X2916440D01*
Y1245688D01*
X2917173D01*
Y1247153D01*
X2917905D01*
Y1248619D01*
X2918638D01*
Y1250084D01*
X2919371D01*
Y1250817D01*
X2920104D01*
Y1252283D01*
X2920837D01*
Y1253748D01*
X2921569D01*
Y1255214D01*
X2922302D01*
Y1256680D01*
X2923035D01*
Y1258145D01*
X2923768D01*
Y1259611D01*
X2924501D01*
Y1261077D01*
X2925233D01*
Y1262542D01*
X2925966D01*
Y1264008D01*
X2926699D01*
Y1265473D01*
X2927432D01*
Y1266939D01*
X2928165D01*
Y1268405D01*
X2928898D01*
Y1269870D01*
X2929630D01*
Y1271336D01*
X2930363D01*
Y1272802D01*
X2931096D01*
Y1273534D01*
X2931829D01*
Y1275000D01*
X2932562D01*
Y1276466D01*
X2933294D01*
Y1277931D01*
X2934027D01*
Y1279397D01*
X2934760D01*
Y1280862D01*
X2935493D01*
Y1282328D01*
X2936226D01*
Y1283794D01*
X2936959D01*
Y1285259D01*
X2937691D01*
Y1286725D01*
X2938424D01*
Y1288191D01*
X2939157D01*
Y1289656D01*
X2939890D01*
Y1291122D01*
X2940623D01*
Y1292588D01*
X2941355D01*
Y1294053D01*
X2942088D01*
Y1294786D01*
X2942821D01*
Y1296252D01*
X2943554D01*
Y1296985D01*
X2973599D01*
Y1223703D01*
D02*
G37*
G36*
X2775006Y1184864D02*
X2774274D01*
Y1173872D01*
X2773541D01*
Y1170208D01*
X2772808D01*
Y1167276D01*
X2772075D01*
Y1165811D01*
X2771342D01*
Y1163612D01*
X2770610D01*
Y1162147D01*
X2769877D01*
Y1160681D01*
X2769144D01*
Y1159948D01*
X2768411D01*
Y1158483D01*
X2767678D01*
Y1157750D01*
X2766945D01*
Y1157017D01*
X2766213D01*
Y1155551D01*
X2765480D01*
Y1154819D01*
X2764747D01*
Y1154086D01*
X2764014D01*
Y1153353D01*
X2763282D01*
Y1152620D01*
X2762549D01*
Y1151887D01*
X2761816D01*
Y1151154D01*
X2760350D01*
Y1150422D01*
X2759617D01*
Y1149689D01*
X2758885D01*
Y1148956D01*
X2757419D01*
Y1148223D01*
X2756686D01*
Y1147490D01*
X2755220D01*
Y1146757D01*
X2754488D01*
Y1146025D01*
X2753022D01*
Y1145292D01*
X2751556D01*
Y1144559D01*
X2750824D01*
Y1143826D01*
X2749358D01*
Y1143093D01*
X2747892D01*
Y1142361D01*
X2746427D01*
Y1141628D01*
X2745694D01*
Y1140895D01*
X2744228D01*
Y1140162D01*
X2742763D01*
Y1139429D01*
X2741297D01*
Y1138697D01*
X2740564D01*
Y1137964D01*
X2739099D01*
Y1137231D01*
X2737633D01*
Y1136498D01*
X2736900D01*
Y1135765D01*
X2735434D01*
Y1135033D01*
X2733969D01*
Y1134300D01*
X2732503D01*
Y1133567D01*
X2731770D01*
Y1132834D01*
X2730305D01*
Y1132101D01*
X2728839D01*
Y1131368D01*
X2727374D01*
Y1130636D01*
X2726641D01*
Y1129903D01*
X2725175D01*
Y1129170D01*
X2723709D01*
Y1128437D01*
X2722244D01*
Y1127704D01*
X2721511D01*
Y1126972D01*
X2720045D01*
Y1126239D01*
X2718580D01*
Y1125506D01*
X2717847D01*
Y1124773D01*
X2716381D01*
Y1124040D01*
X2714916D01*
Y1123307D01*
X2713450D01*
Y1122575D01*
X2712717D01*
Y1121842D01*
X2711252D01*
Y1121109D01*
X2709786D01*
Y1120376D01*
X2708320D01*
Y1119643D01*
X2707588D01*
Y1118910D01*
X2706122D01*
Y1118178D01*
X2704656D01*
Y1117445D01*
X2703191D01*
Y1116712D01*
X2702458D01*
Y1115979D01*
X2700992D01*
Y1115246D01*
X2699527D01*
Y1114514D01*
X2698794D01*
Y1113781D01*
X2697328D01*
Y1113048D01*
X2695863D01*
Y1112315D01*
X2694397D01*
Y1111582D01*
X2693664D01*
Y1110850D01*
X2692198D01*
Y1110117D01*
X2690733D01*
Y1109384D01*
X2689267D01*
Y1108651D01*
X2688534D01*
Y1107918D01*
X2687069D01*
Y1107186D01*
X2685603D01*
Y1106453D01*
X2684870D01*
Y1105720D01*
X2683405D01*
Y1104987D01*
X2681939D01*
Y1104254D01*
X2680473D01*
Y1103521D01*
X2679741D01*
Y1102789D01*
X2678275D01*
Y1102056D01*
X2676809D01*
Y1101323D01*
X2675344D01*
Y1100590D01*
X2674611D01*
Y1099857D01*
X2673145D01*
Y1099124D01*
X2671680D01*
Y1098392D01*
X2670214D01*
Y1097659D01*
X2669481D01*
Y1096926D01*
X2668016D01*
Y1096193D01*
X2666550D01*
Y1095460D01*
X2665817D01*
Y1094728D01*
X2664352D01*
Y1093995D01*
X2662886D01*
Y1093262D01*
X2661420D01*
Y1092529D01*
X2660687D01*
Y1091796D01*
X2659222D01*
Y1091064D01*
X2657756D01*
Y1090331D01*
X2656291D01*
Y1089598D01*
X2655558D01*
Y1088865D01*
X2654092D01*
Y1088132D01*
X2652626D01*
Y1087399D01*
X2651894D01*
Y1203917D01*
Y1204650D01*
Y1217108D01*
X2652626D01*
Y1216375D01*
X2654092D01*
Y1215642D01*
X2654825D01*
Y1214909D01*
X2656291D01*
Y1214176D01*
X2657756D01*
Y1213444D01*
X2659222D01*
Y1212711D01*
X2659955D01*
Y1211978D01*
X2661420D01*
Y1211245D01*
X2662886D01*
Y1210512D01*
X2663619D01*
Y1209780D01*
X2665084D01*
Y1209047D01*
X2666550D01*
Y1208314D01*
X2668016D01*
Y1207581D01*
X2668748D01*
Y1206848D01*
X2670214D01*
Y1206116D01*
X2671680D01*
Y1205383D01*
X2673145D01*
Y1204650D01*
X2673878D01*
Y1203917D01*
X2675344D01*
Y1203184D01*
X2676809D01*
Y1202451D01*
X2677542D01*
Y1201719D01*
X2679008D01*
Y1200986D01*
X2680473D01*
Y1200253D01*
X2681939D01*
Y1199520D01*
X2682672D01*
Y1198787D01*
X2684137D01*
Y1198054D01*
X2685603D01*
Y1197322D01*
X2687069D01*
Y1196589D01*
X2687802D01*
Y1195856D01*
X2689267D01*
Y1195123D01*
X2690733D01*
Y1194390D01*
X2692198D01*
Y1193658D01*
X2692931D01*
Y1192925D01*
X2694397D01*
Y1192192D01*
X2695863D01*
Y1191459D01*
X2696595D01*
Y1190726D01*
X2698061D01*
Y1189994D01*
X2699527D01*
Y1189261D01*
X2700992D01*
Y1188528D01*
X2701725D01*
Y1187795D01*
X2703191D01*
Y1187062D01*
X2704656D01*
Y1186330D01*
X2706122D01*
Y1185597D01*
X2706855D01*
Y1184864D01*
X2708320D01*
Y1184131D01*
X2709786D01*
Y1183398D01*
X2711252D01*
Y1182665D01*
X2712717D01*
Y1181933D01*
X2720045D01*
Y1182665D01*
X2721511D01*
Y1183398D01*
X2722244D01*
Y1184131D01*
X2722977D01*
Y1184864D01*
X2723709D01*
Y1185597D01*
X2724442D01*
Y1186330D01*
X2725175D01*
Y1187795D01*
X2725908D01*
Y1189994D01*
X2726641D01*
Y1193658D01*
X2725908D01*
Y1195856D01*
X2725175D01*
Y1197322D01*
X2724442D01*
Y1198787D01*
X2723709D01*
Y1199520D01*
X2722977D01*
Y1200253D01*
X2721511D01*
Y1200986D01*
X2720778D01*
Y1201719D01*
X2719313D01*
Y1202451D01*
X2717847D01*
Y1203184D01*
X2716381D01*
Y1203917D01*
X2715648D01*
Y1204650D01*
X2714183D01*
Y1205383D01*
X2712717D01*
Y1206116D01*
X2711252D01*
Y1206848D01*
X2710519D01*
Y1207581D01*
X2709053D01*
Y1208314D01*
X2707588D01*
Y1209047D01*
X2706855D01*
Y1209780D01*
X2705389D01*
Y1210512D01*
X2703923D01*
Y1211245D01*
X2702458D01*
Y1211978D01*
X2701725D01*
Y1212711D01*
X2700259D01*
Y1213444D01*
X2698794D01*
Y1214176D01*
X2697328D01*
Y1214909D01*
X2696595D01*
Y1215642D01*
X2695130D01*
Y1216375D01*
X2693664D01*
Y1217108D01*
X2692198D01*
Y1217841D01*
X2691466D01*
Y1218573D01*
X2690000D01*
Y1219306D01*
X2688534D01*
Y1220039D01*
X2687802D01*
Y1220772D01*
X2686336D01*
Y1221505D01*
X2684870D01*
Y1222237D01*
X2683405D01*
Y1222970D01*
X2682672D01*
Y1223703D01*
X2681206D01*
Y1224436D01*
X2679741D01*
Y1225169D01*
X2678275D01*
Y1225901D01*
X2677542D01*
Y1226634D01*
X2676077D01*
Y1227367D01*
X2674611D01*
Y1228100D01*
X2673145D01*
Y1228833D01*
X2672412D01*
Y1229565D01*
X2670947D01*
Y1230298D01*
X2669481D01*
Y1231031D01*
X2668748D01*
Y1231764D01*
X2667283D01*
Y1232497D01*
X2665817D01*
Y1233230D01*
X2664352D01*
Y1233962D01*
X2663619D01*
Y1234695D01*
X2662886D01*
Y1235428D01*
X2664352D01*
Y1236161D01*
X2665084D01*
Y1236894D01*
X2666550D01*
Y1237627D01*
X2668016D01*
Y1238359D01*
X2668748D01*
Y1239092D01*
X2670214D01*
Y1239825D01*
X2671680D01*
Y1240558D01*
X2673145D01*
Y1241291D01*
X2673878D01*
Y1242023D01*
X2675344D01*
Y1242756D01*
X2676809D01*
Y1243489D01*
X2678275D01*
Y1244222D01*
X2679008D01*
Y1244955D01*
X2680473D01*
Y1245688D01*
X2681939D01*
Y1246420D01*
X2683405D01*
Y1247153D01*
X2684137D01*
Y1247886D01*
X2685603D01*
Y1248619D01*
X2687069D01*
Y1249351D01*
X2687802D01*
Y1250084D01*
X2689267D01*
Y1250817D01*
X2690733D01*
Y1251550D01*
X2692198D01*
Y1252283D01*
X2692931D01*
Y1253016D01*
X2694397D01*
Y1253748D01*
X2695863D01*
Y1254481D01*
X2697328D01*
Y1255214D01*
X2698061D01*
Y1255947D01*
X2699527D01*
Y1256680D01*
X2700992D01*
Y1257412D01*
X2701725D01*
Y1258145D01*
X2703191D01*
Y1258878D01*
X2704656D01*
Y1259611D01*
X2706122D01*
Y1260344D01*
X2706855D01*
Y1261077D01*
X2708320D01*
Y1261809D01*
X2709786D01*
Y1262542D01*
X2711252D01*
Y1263275D01*
X2711984D01*
Y1264008D01*
X2713450D01*
Y1264741D01*
X2714916D01*
Y1265473D01*
X2716381D01*
Y1266206D01*
X2717114D01*
Y1266939D01*
X2718580D01*
Y1267672D01*
X2720045D01*
Y1268405D01*
X2720778D01*
Y1269138D01*
X2722244D01*
Y1269870D01*
X2723709D01*
Y1270603D01*
X2725175D01*
Y1271336D01*
X2725908D01*
Y1272069D01*
X2727374D01*
Y1272802D01*
X2728839D01*
Y1273534D01*
X2730305D01*
Y1274267D01*
X2731038D01*
Y1275000D01*
X2732503D01*
Y1275733D01*
X2733969D01*
Y1276466D01*
X2735434D01*
Y1277198D01*
X2736167D01*
Y1277931D01*
X2737633D01*
Y1278664D01*
X2739099D01*
Y1279397D01*
X2739831D01*
Y1280130D01*
X2741297D01*
Y1280862D01*
X2742763D01*
Y1281595D01*
X2744228D01*
Y1282328D01*
X2744961D01*
Y1283061D01*
X2746427D01*
Y1283794D01*
X2747892D01*
Y1284527D01*
X2749358D01*
Y1285259D01*
X2750091D01*
Y1285992D01*
X2751556D01*
Y1286725D01*
X2753022D01*
Y1287458D01*
X2754488D01*
Y1288191D01*
X2755220D01*
Y1288924D01*
X2756686D01*
Y1289656D01*
X2758152D01*
Y1290389D01*
X2758885D01*
Y1291122D01*
X2760350D01*
Y1291855D01*
X2761816D01*
Y1292588D01*
X2763282D01*
Y1293320D01*
X2764014D01*
Y1294053D01*
X2765480D01*
Y1294786D01*
X2766945D01*
Y1295519D01*
X2768411D01*
Y1296252D01*
X2769144D01*
Y1296985D01*
X2770610D01*
Y1297717D01*
X2772075D01*
Y1298450D01*
X2772808D01*
Y1299183D01*
X2774274D01*
Y1299916D01*
X2775006D01*
Y1184864D01*
D02*
G37*
G36*
X3055675Y1274267D02*
X3039552D01*
Y1257412D01*
Y1256680D01*
Y1190726D01*
X3055675D01*
Y1168742D01*
X2994851D01*
Y1190726D01*
X3010973D01*
Y1274267D01*
X2994851D01*
Y1296985D01*
X3055675D01*
Y1274267D01*
D02*
G37*
G36*
X2509728Y1299183D02*
X2510460D01*
Y1298450D01*
X2511926D01*
Y1297717D01*
X2513392D01*
Y1296985D01*
X2514124D01*
Y1296252D01*
X2515590D01*
Y1295519D01*
X2517056D01*
Y1294786D01*
X2518521D01*
Y1294053D01*
X2519254D01*
Y1293320D01*
X2520720D01*
Y1292588D01*
X2522186D01*
Y1291855D01*
X2523651D01*
Y1291122D01*
X2524384D01*
Y1290389D01*
X2525849D01*
Y1289656D01*
X2527315D01*
Y1288924D01*
X2528781D01*
Y1288191D01*
X2529514D01*
Y1287458D01*
X2530979D01*
Y1286725D01*
X2532445D01*
Y1285992D01*
X2533178D01*
Y1285259D01*
X2534643D01*
Y1284527D01*
X2536109D01*
Y1283794D01*
X2537575D01*
Y1283061D01*
X2538307D01*
Y1282328D01*
X2539773D01*
Y1281595D01*
X2541239D01*
Y1280862D01*
X2542704D01*
Y1280130D01*
X2543437D01*
Y1279397D01*
X2544903D01*
Y1278664D01*
X2546368D01*
Y1277931D01*
X2547834D01*
Y1277198D01*
X2548567D01*
Y1276466D01*
X2550032D01*
Y1275733D01*
X2551498D01*
Y1275000D01*
X2552231D01*
Y1274267D01*
X2553697D01*
Y1273534D01*
X2555162D01*
Y1272802D01*
X2556628D01*
Y1272069D01*
X2557361D01*
Y1271336D01*
X2558826D01*
Y1270603D01*
X2560292D01*
Y1269870D01*
X2561758D01*
Y1269138D01*
X2562490D01*
Y1268405D01*
X2563956D01*
Y1267672D01*
X2565421D01*
Y1266939D01*
X2566154D01*
Y1266206D01*
X2567620D01*
Y1265473D01*
X2569086D01*
Y1264741D01*
X2570551D01*
Y1264008D01*
X2571284D01*
Y1263275D01*
X2572750D01*
Y1262542D01*
X2574215D01*
Y1261809D01*
X2575681D01*
Y1261077D01*
X2576414D01*
Y1260344D01*
X2577879D01*
Y1259611D01*
X2579345D01*
Y1258878D01*
X2580811D01*
Y1258145D01*
X2581544D01*
Y1257412D01*
X2583009D01*
Y1256680D01*
X2584475D01*
Y1255947D01*
X2585207D01*
Y1255214D01*
X2586673D01*
Y1254481D01*
X2588139D01*
Y1253748D01*
X2589604D01*
Y1253016D01*
X2590337D01*
Y1252283D01*
X2591803D01*
Y1251550D01*
X2593269D01*
Y1250817D01*
X2594734D01*
Y1250084D01*
X2595467D01*
Y1249351D01*
X2596933D01*
Y1248619D01*
X2598398D01*
Y1247886D01*
X2599864D01*
Y1247153D01*
X2600597D01*
Y1246420D01*
X2602062D01*
Y1245688D01*
X2603528D01*
Y1244955D01*
X2604261D01*
Y1244222D01*
X2605726D01*
Y1243489D01*
X2607192D01*
Y1242756D01*
X2608658D01*
Y1242023D01*
X2609390D01*
Y1241291D01*
X2610856D01*
Y1240558D01*
X2612322D01*
Y1239825D01*
X2613787D01*
Y1239092D01*
X2614520D01*
Y1238359D01*
X2615986D01*
Y1237627D01*
X2617451D01*
Y1236894D01*
X2618184D01*
Y1236161D01*
X2619650D01*
Y1235428D01*
X2621115D01*
Y1234695D01*
X2620383D01*
Y1233962D01*
X2618917D01*
Y1233230D01*
X2618184D01*
Y1232497D01*
X2616718D01*
Y1231764D01*
X2615253D01*
Y1231031D01*
X2613787D01*
Y1230298D01*
X2613055D01*
Y1229565D01*
X2611589D01*
Y1228833D01*
X2610123D01*
Y1228100D01*
X2609390D01*
Y1227367D01*
X2607925D01*
Y1226634D01*
X2606459D01*
Y1225901D01*
X2604994D01*
Y1225169D01*
X2604261D01*
Y1224436D01*
X2602795D01*
Y1223703D01*
X2601329D01*
Y1222970D01*
X2599864D01*
Y1222237D01*
X2599131D01*
Y1221505D01*
X2597665D01*
Y1220772D01*
X2596200D01*
Y1220039D01*
X2595467D01*
Y1219306D01*
X2594001D01*
Y1218573D01*
X2592536D01*
Y1217841D01*
X2591070D01*
Y1217108D01*
X2590337D01*
Y1216375D01*
X2588872D01*
Y1215642D01*
X2587406D01*
Y1214909D01*
X2585940D01*
Y1214176D01*
X2585207D01*
Y1213444D01*
X2583742D01*
Y1212711D01*
X2582276D01*
Y1211978D01*
X2580811D01*
Y1211245D01*
X2580078D01*
Y1210512D01*
X2578612D01*
Y1209780D01*
X2577147D01*
Y1209047D01*
X2576414D01*
Y1208314D01*
X2574948D01*
Y1207581D01*
X2573483D01*
Y1206848D01*
X2572017D01*
Y1206116D01*
X2571284D01*
Y1205383D01*
X2569818D01*
Y1204650D01*
X2568353D01*
Y1203917D01*
X2566887D01*
Y1203184D01*
X2566154D01*
Y1202451D01*
X2564689D01*
Y1201719D01*
X2563223D01*
Y1200986D01*
X2561758D01*
Y1200253D01*
X2561025D01*
Y1199520D01*
X2560292D01*
Y1198787D01*
X2559559D01*
Y1198054D01*
X2558826D01*
Y1196589D01*
X2558093D01*
Y1195123D01*
X2557361D01*
Y1188528D01*
X2558093D01*
Y1187062D01*
X2558826D01*
Y1185597D01*
X2559559D01*
Y1184864D01*
X2560292D01*
Y1184131D01*
X2561025D01*
Y1183398D01*
X2562490D01*
Y1182665D01*
X2563956D01*
Y1181933D01*
X2570551D01*
Y1182665D01*
X2572017D01*
Y1183398D01*
X2573483D01*
Y1184131D01*
X2574948D01*
Y1184864D01*
X2576414D01*
Y1185597D01*
X2577147D01*
Y1186330D01*
X2578612D01*
Y1187062D01*
X2580078D01*
Y1187795D01*
X2580811D01*
Y1188528D01*
X2582276D01*
Y1189261D01*
X2583742D01*
Y1189994D01*
X2585207D01*
Y1190726D01*
X2585940D01*
Y1191459D01*
X2587406D01*
Y1192192D01*
X2588872D01*
Y1192925D01*
X2590337D01*
Y1193658D01*
X2591070D01*
Y1194390D01*
X2592536D01*
Y1195123D01*
X2594001D01*
Y1195856D01*
X2595467D01*
Y1196589D01*
X2596200D01*
Y1197322D01*
X2597665D01*
Y1198054D01*
X2599131D01*
Y1198787D01*
X2599864D01*
Y1199520D01*
X2601329D01*
Y1200253D01*
X2602795D01*
Y1200986D01*
X2604261D01*
Y1201719D01*
X2604994D01*
Y1202451D01*
X2606459D01*
Y1203184D01*
X2607925D01*
Y1203917D01*
X2609390D01*
Y1204650D01*
X2610123D01*
Y1205383D01*
X2611589D01*
Y1206116D01*
X2613055D01*
Y1206848D01*
X2614520D01*
Y1207581D01*
X2615253D01*
Y1208314D01*
X2616718D01*
Y1209047D01*
X2618184D01*
Y1209780D01*
X2618917D01*
Y1210512D01*
X2620383D01*
Y1211245D01*
X2621848D01*
Y1211978D01*
X2623314D01*
Y1212711D01*
X2624047D01*
Y1213444D01*
X2625512D01*
Y1214176D01*
X2626978D01*
Y1214909D01*
X2628444D01*
Y1215642D01*
X2629176D01*
Y1216375D01*
X2630642D01*
Y1217108D01*
X2631375D01*
Y1139429D01*
Y1138697D01*
Y1087399D01*
X2630642D01*
Y1088132D01*
X2629176D01*
Y1088865D01*
X2627711D01*
Y1089598D01*
X2626245D01*
Y1090331D01*
X2625512D01*
Y1091064D01*
X2624047D01*
Y1091796D01*
X2622581D01*
Y1092529D01*
X2621848D01*
Y1093262D01*
X2620383D01*
Y1093995D01*
X2618917D01*
Y1094728D01*
X2617451D01*
Y1095460D01*
X2616718D01*
Y1096193D01*
X2615253D01*
Y1096926D01*
X2613787D01*
Y1097659D01*
X2612322D01*
Y1098392D01*
X2611589D01*
Y1099124D01*
X2610123D01*
Y1099857D01*
X2608658D01*
Y1100590D01*
X2607925D01*
Y1101323D01*
X2606459D01*
Y1102056D01*
X2604994D01*
Y1102789D01*
X2603528D01*
Y1103521D01*
X2602795D01*
Y1104254D01*
X2601329D01*
Y1104987D01*
X2599864D01*
Y1105720D01*
X2598398D01*
Y1106453D01*
X2597665D01*
Y1107186D01*
X2596200D01*
Y1107918D01*
X2594734D01*
Y1108651D01*
X2593269D01*
Y1109384D01*
X2592536D01*
Y1110117D01*
X2591070D01*
Y1110850D01*
X2589604D01*
Y1111582D01*
X2588872D01*
Y1112315D01*
X2587406D01*
Y1113048D01*
X2585940D01*
Y1113781D01*
X2584475D01*
Y1114514D01*
X2583742D01*
Y1115246D01*
X2582276D01*
Y1115979D01*
X2580811D01*
Y1116712D01*
X2579345D01*
Y1117445D01*
X2578612D01*
Y1118178D01*
X2577147D01*
Y1118910D01*
X2575681D01*
Y1119643D01*
X2574215D01*
Y1120376D01*
X2573483D01*
Y1121109D01*
X2572017D01*
Y1121842D01*
X2570551D01*
Y1122575D01*
X2569818D01*
Y1123307D01*
X2568353D01*
Y1124040D01*
X2566887D01*
Y1124773D01*
X2565421D01*
Y1125506D01*
X2564689D01*
Y1126239D01*
X2563223D01*
Y1126972D01*
X2561758D01*
Y1127704D01*
X2560292D01*
Y1128437D01*
X2559559D01*
Y1129170D01*
X2558093D01*
Y1129903D01*
X2556628D01*
Y1130636D01*
X2555162D01*
Y1131368D01*
X2554429D01*
Y1132101D01*
X2552964D01*
Y1132834D01*
X2551498D01*
Y1133567D01*
X2550765D01*
Y1134300D01*
X2549300D01*
Y1135033D01*
X2547834D01*
Y1135765D01*
X2546368D01*
Y1136498D01*
X2545635D01*
Y1137231D01*
X2544170D01*
Y1137964D01*
X2542704D01*
Y1138697D01*
X2541239D01*
Y1139429D01*
X2540506D01*
Y1140162D01*
X2539040D01*
Y1140895D01*
X2537575D01*
Y1141628D01*
X2536842D01*
Y1142361D01*
X2535376D01*
Y1143093D01*
X2533910D01*
Y1143826D01*
X2532445D01*
Y1144559D01*
X2531712D01*
Y1145292D01*
X2530246D01*
Y1146025D01*
X2528781D01*
Y1146757D01*
X2528048D01*
Y1147490D01*
X2526582D01*
Y1148223D01*
X2525849D01*
Y1148956D01*
X2524384D01*
Y1149689D01*
X2523651D01*
Y1150422D01*
X2522918D01*
Y1151154D01*
X2521453D01*
Y1151887D01*
X2520720D01*
Y1152620D01*
X2519987D01*
Y1153353D01*
X2519254D01*
Y1154086D01*
X2518521D01*
Y1154819D01*
X2517789D01*
Y1155551D01*
X2517056D01*
Y1157017D01*
X2516323D01*
Y1157750D01*
X2515590D01*
Y1158483D01*
X2514857D01*
Y1159948D01*
X2514124D01*
Y1161414D01*
X2513392D01*
Y1162147D01*
X2512659D01*
Y1163612D01*
X2511926D01*
Y1165811D01*
X2511193D01*
Y1168009D01*
X2510460D01*
Y1170208D01*
X2509728D01*
Y1174604D01*
X2508995D01*
Y1299916D01*
X2509728D01*
Y1299183D01*
D02*
G37*
G36*
X3161933Y1296985D02*
X3167062D01*
Y1272069D01*
X3131887D01*
Y1168742D01*
X3104040D01*
Y1272069D01*
X3068865D01*
Y1296985D01*
X3161200D01*
X3161933D01*
D02*
G37*
G36*
X3210298Y1225169D02*
Y1296985D01*
X3296770D01*
Y1272069D01*
X3237412D01*
Y1245688D01*
X3288709D01*
Y1221505D01*
X3237412D01*
Y1193658D01*
X3238145D01*
Y1192925D01*
X3279183D01*
Y1193658D01*
X3296770D01*
Y1168742D01*
X3210298D01*
Y1224436D01*
Y1225169D01*
D02*
G37*
G36*
X3357594Y1272069D02*
X3349533D01*
Y1245688D01*
X3400097D01*
Y1221505D01*
X3349533D01*
Y1193658D01*
X3408158D01*
Y1192925D01*
X3408891D01*
Y1168742D01*
X3320953D01*
Y1296985D01*
X3408891D01*
Y1272069D01*
X3358327D01*
X3357594D01*
D02*
G37*
G36*
X3511485Y1260344D02*
Y1259611D01*
X3510019D01*
Y1258878D01*
X3508554D01*
Y1258145D01*
X3507088D01*
Y1257412D01*
X3505623D01*
Y1256680D01*
X3504157D01*
Y1258878D01*
X3503424D01*
Y1260344D01*
X3502691D01*
Y1261809D01*
X3501959D01*
Y1263275D01*
X3501226D01*
Y1264741D01*
X3500493D01*
Y1265473D01*
X3499760D01*
Y1266206D01*
X3499027D01*
Y1267672D01*
X3498294D01*
Y1268405D01*
X3497562D01*
Y1269138D01*
X3496096D01*
Y1269870D01*
X3495363D01*
Y1270603D01*
X3493898D01*
Y1271336D01*
X3493165D01*
Y1272069D01*
X3490966D01*
Y1272802D01*
X3489501D01*
Y1273534D01*
X3485837D01*
Y1274267D01*
X3475577D01*
Y1273534D01*
X3471913D01*
Y1272802D01*
X3469715D01*
Y1272069D01*
X3468249D01*
Y1271336D01*
X3466783D01*
Y1270603D01*
X3466051D01*
Y1269870D01*
X3464585D01*
Y1269138D01*
X3463852D01*
Y1268405D01*
X3463119D01*
Y1267672D01*
X3461654D01*
Y1266206D01*
X3460921D01*
Y1265473D01*
X3460188D01*
Y1264741D01*
X3459455D01*
Y1264008D01*
X3458722D01*
Y1262542D01*
X3457990D01*
Y1261809D01*
X3457257D01*
Y1260344D01*
X3456524D01*
Y1258145D01*
X3455791D01*
Y1256680D01*
X3455058D01*
Y1253748D01*
X3454326D01*
Y1250084D01*
X3453593D01*
Y1215642D01*
X3454326D01*
Y1211245D01*
X3455058D01*
Y1209047D01*
X3455791D01*
Y1206848D01*
X3456524D01*
Y1205383D01*
X3457257D01*
Y1203917D01*
X3457990D01*
Y1202451D01*
X3458722D01*
Y1201719D01*
X3459455D01*
Y1200253D01*
X3460188D01*
Y1199520D01*
X3460921D01*
Y1198787D01*
X3461654D01*
Y1198054D01*
X3462387D01*
Y1197322D01*
X3463119D01*
Y1196589D01*
X3464585D01*
Y1195856D01*
X3465318D01*
Y1195123D01*
X3466783D01*
Y1194390D01*
X3467516D01*
Y1193658D01*
X3468982D01*
Y1192925D01*
X3471180D01*
Y1192192D01*
X3474111D01*
Y1191459D01*
X3487302D01*
Y1192192D01*
X3489501D01*
Y1192925D01*
X3491699D01*
Y1193658D01*
X3493165D01*
Y1194390D01*
X3494630D01*
Y1195123D01*
X3495363D01*
Y1195856D01*
X3496096D01*
Y1196589D01*
X3497562D01*
Y1197322D01*
X3498294D01*
Y1198054D01*
X3499027D01*
Y1198787D01*
X3499760D01*
Y1199520D01*
X3500493D01*
Y1200253D01*
X3501226D01*
Y1201719D01*
X3501959D01*
Y1202451D01*
X3502691D01*
Y1203917D01*
X3503424D01*
Y1204650D01*
X3504157D01*
Y1206116D01*
X3504890D01*
Y1207581D01*
X3505623D01*
Y1209780D01*
X3507821D01*
Y1209047D01*
X3509287D01*
Y1208314D01*
X3510019D01*
Y1207581D01*
X3511485D01*
Y1206848D01*
X3512951D01*
Y1206116D01*
X3513684D01*
Y1205383D01*
X3515149D01*
Y1204650D01*
X3516615D01*
Y1203917D01*
X3518080D01*
Y1203184D01*
X3518813D01*
Y1202451D01*
X3520279D01*
Y1201719D01*
X3521744D01*
Y1200986D01*
X3522477D01*
Y1200253D01*
X3523943D01*
Y1199520D01*
X3525409D01*
Y1198787D01*
X3526874D01*
Y1198054D01*
X3527607D01*
Y1197322D01*
X3529073D01*
Y1196589D01*
X3528340D01*
Y1195123D01*
X3527607D01*
Y1193658D01*
X3526874D01*
Y1192192D01*
X3526141D01*
Y1191459D01*
X3525409D01*
Y1189994D01*
X3524676D01*
Y1189261D01*
X3523943D01*
Y1187795D01*
X3523210D01*
Y1187062D01*
X3522477D01*
Y1185597D01*
X3521744D01*
Y1184864D01*
X3521012D01*
Y1184131D01*
X3520279D01*
Y1183398D01*
X3519546D01*
Y1181933D01*
X3518813D01*
Y1181200D01*
X3518080D01*
Y1180467D01*
X3517348D01*
Y1179734D01*
X3516615D01*
Y1179001D01*
X3515882D01*
Y1178268D01*
X3514416D01*
Y1177536D01*
X3513684D01*
Y1176803D01*
X3512951D01*
Y1176070D01*
X3512218D01*
Y1175337D01*
X3510752D01*
Y1174604D01*
X3510019D01*
Y1173872D01*
X3508554D01*
Y1173139D01*
X3507088D01*
Y1172406D01*
X3506355D01*
Y1171673D01*
X3504157D01*
Y1170940D01*
X3502691D01*
Y1170208D01*
X3501226D01*
Y1169475D01*
X3499027D01*
Y1168742D01*
X3496096D01*
Y1168009D01*
X3493165D01*
Y1167276D01*
X3488768D01*
Y1166543D01*
X3471913D01*
Y1167276D01*
X3467516D01*
Y1168009D01*
X3463852D01*
Y1168742D01*
X3461654D01*
Y1169475D01*
X3459455D01*
Y1170208D01*
X3457257D01*
Y1170940D01*
X3455058D01*
Y1171673D01*
X3453593D01*
Y1172406D01*
X3452127D01*
Y1173139D01*
X3450662D01*
Y1173872D01*
X3449929D01*
Y1174604D01*
X3448463D01*
Y1175337D01*
X3447730D01*
Y1176070D01*
X3446265D01*
Y1176803D01*
X3445532D01*
Y1177536D01*
X3444799D01*
Y1178268D01*
X3443333D01*
Y1179001D01*
X3442601D01*
Y1179734D01*
X3441868D01*
Y1180467D01*
X3441135D01*
Y1181200D01*
X3440402D01*
Y1181933D01*
X3439669D01*
Y1182665D01*
X3438936D01*
Y1183398D01*
X3438204D01*
Y1184864D01*
X3437471D01*
Y1185597D01*
X3436738D01*
Y1186330D01*
X3436005D01*
Y1187795D01*
X3435272D01*
Y1188528D01*
X3434540D01*
Y1189994D01*
X3433807D01*
Y1190726D01*
X3433074D01*
Y1192192D01*
X3432341D01*
Y1193658D01*
X3431608D01*
Y1195123D01*
X3430876D01*
Y1196589D01*
X3430143D01*
Y1198054D01*
X3429410D01*
Y1200253D01*
X3428677D01*
Y1202451D01*
X3427944D01*
Y1204650D01*
X3427211D01*
Y1206848D01*
X3426479D01*
Y1210512D01*
X3425746D01*
Y1214176D01*
X3425013D01*
Y1218573D01*
X3424280D01*
Y1231031D01*
X3423547D01*
Y1232497D01*
X3424280D01*
Y1244955D01*
X3425013D01*
Y1250084D01*
X3425746D01*
Y1253748D01*
X3426479D01*
Y1256680D01*
X3427211D01*
Y1259611D01*
X3427944D01*
Y1261809D01*
X3428677D01*
Y1264008D01*
X3429410D01*
Y1265473D01*
X3430143D01*
Y1267672D01*
X3430876D01*
Y1269138D01*
X3431608D01*
Y1270603D01*
X3432341D01*
Y1272069D01*
X3433074D01*
Y1273534D01*
X3433807D01*
Y1274267D01*
X3434540D01*
Y1275733D01*
X3435272D01*
Y1277198D01*
X3436005D01*
Y1277931D01*
X3436738D01*
Y1278664D01*
X3437471D01*
Y1280130D01*
X3438204D01*
Y1280862D01*
X3438936D01*
Y1281595D01*
X3439669D01*
Y1282328D01*
X3440402D01*
Y1283061D01*
X3441135D01*
Y1283794D01*
X3441868D01*
Y1284527D01*
X3442601D01*
Y1285259D01*
X3443333D01*
Y1285992D01*
X3444066D01*
Y1286725D01*
X3444799D01*
Y1287458D01*
X3445532D01*
Y1288191D01*
X3446997D01*
Y1288924D01*
X3447730D01*
Y1289656D01*
X3448463D01*
Y1290389D01*
X3449929D01*
Y1291122D01*
X3450662D01*
Y1291855D01*
X3452127D01*
Y1292588D01*
X3453593D01*
Y1293320D01*
X3455058D01*
Y1294053D01*
X3456524D01*
Y1294786D01*
X3458722D01*
Y1295519D01*
X3460921D01*
Y1296252D01*
X3463119D01*
Y1296985D01*
X3466051D01*
Y1297717D01*
X3468982D01*
Y1298450D01*
X3474844D01*
Y1299183D01*
X3486569D01*
Y1298450D01*
X3492432D01*
Y1297717D01*
X3496096D01*
Y1296985D01*
X3499027D01*
Y1296252D01*
X3501226D01*
Y1295519D01*
X3503424D01*
Y1294786D01*
X3504890D01*
Y1294053D01*
X3506355D01*
Y1293320D01*
X3507821D01*
Y1292588D01*
X3509287D01*
Y1291855D01*
X3510019D01*
Y1291122D01*
X3511485D01*
Y1290389D01*
X3512218D01*
Y1289656D01*
X3513684D01*
Y1288924D01*
X3514416D01*
Y1288191D01*
X3515149D01*
Y1287458D01*
X3515882D01*
Y1286725D01*
X3516615D01*
Y1285992D01*
X3517348D01*
Y1285259D01*
X3518080D01*
Y1284527D01*
X3518813D01*
Y1283794D01*
X3519546D01*
Y1283061D01*
X3520279D01*
Y1282328D01*
X3521012D01*
Y1280862D01*
X3521744D01*
Y1280130D01*
X3522477D01*
Y1279397D01*
X3523210D01*
Y1277931D01*
X3523943D01*
Y1277198D01*
X3524676D01*
Y1275733D01*
X3525409D01*
Y1274267D01*
X3526141D01*
Y1272802D01*
X3526874D01*
Y1271336D01*
X3527607D01*
Y1269870D01*
X3528340D01*
Y1268405D01*
X3526874D01*
Y1267672D01*
X3525409D01*
Y1266939D01*
X3523943D01*
Y1266206D01*
X3522477D01*
Y1265473D01*
X3521012D01*
Y1264741D01*
X3519546D01*
Y1264008D01*
X3518080D01*
Y1263275D01*
X3516615D01*
Y1262542D01*
X3515149D01*
Y1261809D01*
X3514416D01*
Y1261077D01*
X3512951D01*
Y1260344D01*
X3512218D01*
X3511485D01*
D02*
G37*
G36*
X3603087Y1244955D02*
X3606018D01*
Y1244222D01*
X3608949D01*
Y1243489D01*
X3611881D01*
Y1242756D01*
X3614079D01*
Y1242023D01*
X3615545D01*
Y1241291D01*
X3617743D01*
Y1240558D01*
X3619209D01*
Y1239825D01*
X3620675D01*
Y1239092D01*
X3621407D01*
Y1238359D01*
X3622873D01*
Y1237627D01*
X3624338D01*
Y1236894D01*
X3625071D01*
Y1236161D01*
X3625804D01*
Y1235428D01*
X3627270D01*
Y1234695D01*
X3628003D01*
Y1233962D01*
X3628735D01*
Y1233230D01*
X3629468D01*
Y1232497D01*
X3630201D01*
Y1231764D01*
X3630934D01*
Y1230298D01*
X3631667D01*
Y1229565D01*
X3632399D01*
Y1228100D01*
X3633132D01*
Y1227367D01*
X3633865D01*
Y1225901D01*
X3634598D01*
Y1224436D01*
X3635331D01*
Y1222237D01*
X3636064D01*
Y1220039D01*
X3636796D01*
Y1216375D01*
X3637529D01*
Y1199520D01*
X3636796D01*
Y1196589D01*
X3636064D01*
Y1193658D01*
X3635331D01*
Y1192192D01*
X3634598D01*
Y1189994D01*
X3633865D01*
Y1188528D01*
X3633132D01*
Y1187795D01*
X3632399D01*
Y1186330D01*
X3631667D01*
Y1184864D01*
X3630934D01*
Y1184131D01*
X3630201D01*
Y1183398D01*
X3629468D01*
Y1181933D01*
X3628735D01*
Y1181200D01*
X3628003D01*
Y1180467D01*
X3627270D01*
Y1179734D01*
X3626537D01*
Y1179001D01*
X3625804D01*
Y1178268D01*
X3625071D01*
Y1177536D01*
X3623606D01*
Y1176803D01*
X3622873D01*
Y1176070D01*
X3622140D01*
Y1175337D01*
X3620675D01*
Y1174604D01*
X3619942D01*
Y1173872D01*
X3618476D01*
Y1173139D01*
X3617010D01*
Y1172406D01*
X3615545D01*
Y1171673D01*
X3614079D01*
Y1170940D01*
X3612613D01*
Y1170208D01*
X3610415D01*
Y1169475D01*
X3608217D01*
Y1168742D01*
X3605285D01*
Y1168009D01*
X3601621D01*
Y1167276D01*
X3595759D01*
Y1166543D01*
X3580370D01*
Y1167276D01*
X3574507D01*
Y1168009D01*
X3570843D01*
Y1168742D01*
X3567912D01*
Y1169475D01*
X3565713D01*
Y1170208D01*
X3563515D01*
Y1170940D01*
X3562049D01*
Y1171673D01*
X3559851D01*
Y1172406D01*
X3558385D01*
Y1173139D01*
X3556920D01*
Y1173872D01*
X3555454D01*
Y1174604D01*
X3553988D01*
Y1175337D01*
X3553256D01*
Y1176070D01*
X3551790D01*
Y1176803D01*
X3551057D01*
Y1177536D01*
X3549591D01*
Y1178268D01*
X3548859D01*
Y1179001D01*
X3547393D01*
Y1179734D01*
X3546660D01*
Y1180467D01*
X3545927D01*
Y1181200D01*
X3545195D01*
Y1181933D01*
X3544462D01*
Y1182665D01*
X3543729D01*
Y1183398D01*
X3542996D01*
Y1184131D01*
X3541530D01*
Y1184864D01*
X3540798D01*
Y1186330D01*
X3540065D01*
Y1187062D01*
X3539332D01*
Y1187795D01*
X3540065D01*
Y1188528D01*
X3540798D01*
Y1189261D01*
X3541530D01*
Y1189994D01*
X3542263D01*
Y1190726D01*
X3542996D01*
Y1191459D01*
X3543729D01*
Y1192192D01*
X3544462D01*
Y1192925D01*
X3545195D01*
Y1193658D01*
X3545927D01*
Y1194390D01*
X3546660D01*
Y1195123D01*
X3547393D01*
Y1195856D01*
X3548126D01*
Y1196589D01*
X3548859D01*
Y1197322D01*
X3549591D01*
Y1198054D01*
X3550324D01*
Y1198787D01*
X3551057D01*
Y1199520D01*
X3551790D01*
Y1200253D01*
X3552523D01*
Y1200986D01*
X3553256D01*
Y1201719D01*
X3553988D01*
Y1202451D01*
X3554721D01*
Y1203184D01*
X3555454D01*
Y1203917D01*
X3556187D01*
Y1204650D01*
X3556920D01*
Y1205383D01*
X3558385D01*
Y1204650D01*
X3559118D01*
Y1203917D01*
X3559851D01*
Y1203184D01*
X3560584D01*
Y1202451D01*
X3561316D01*
Y1201719D01*
X3562049D01*
Y1200986D01*
X3562782D01*
Y1200253D01*
X3563515D01*
Y1199520D01*
X3564981D01*
Y1198787D01*
X3565713D01*
Y1198054D01*
X3567179D01*
Y1197322D01*
X3567912D01*
Y1196589D01*
X3569377D01*
Y1195856D01*
X3570843D01*
Y1195123D01*
X3572309D01*
Y1194390D01*
X3573774D01*
Y1193658D01*
X3575973D01*
Y1192925D01*
X3578171D01*
Y1192192D01*
X3581102D01*
Y1191459D01*
X3585499D01*
Y1190726D01*
X3594293D01*
Y1191459D01*
X3597957D01*
Y1192192D01*
X3600156D01*
Y1192925D01*
X3602354D01*
Y1193658D01*
X3603820D01*
Y1194390D01*
X3604552D01*
Y1195123D01*
X3605285D01*
Y1195856D01*
X3606018D01*
Y1196589D01*
X3606751D01*
Y1197322D01*
X3607484D01*
Y1198054D01*
X3608217D01*
Y1199520D01*
X3608949D01*
Y1200986D01*
X3609682D01*
Y1203917D01*
X3610415D01*
Y1209047D01*
X3609682D01*
Y1211978D01*
X3608949D01*
Y1213444D01*
X3608217D01*
Y1214176D01*
X3607484D01*
Y1215642D01*
X3606751D01*
Y1216375D01*
X3605285D01*
Y1217108D01*
X3604552D01*
Y1217841D01*
X3603087D01*
Y1218573D01*
X3600889D01*
Y1219306D01*
X3598690D01*
Y1220039D01*
X3595026D01*
Y1220772D01*
X3589163D01*
Y1221505D01*
X3583301D01*
Y1222237D01*
X3578171D01*
Y1222970D01*
X3574507D01*
Y1223703D01*
X3571576D01*
Y1224436D01*
X3569377D01*
Y1225169D01*
X3567179D01*
Y1225901D01*
X3564981D01*
Y1226634D01*
X3563515D01*
Y1227367D01*
X3562049D01*
Y1228100D01*
X3560584D01*
Y1228833D01*
X3559118D01*
Y1229565D01*
X3558385D01*
Y1230298D01*
X3556920D01*
Y1231031D01*
X3556187D01*
Y1231764D01*
X3555454D01*
Y1232497D01*
X3553988D01*
Y1233230D01*
X3553256D01*
Y1233962D01*
X3552523D01*
Y1234695D01*
X3551790D01*
Y1235428D01*
X3551057D01*
Y1236161D01*
X3550324D01*
Y1237627D01*
X3549591D01*
Y1238359D01*
X3548859D01*
Y1239825D01*
X3548126D01*
Y1240558D01*
X3547393D01*
Y1242023D01*
X3546660D01*
Y1243489D01*
X3545927D01*
Y1245688D01*
X3545195D01*
Y1247886D01*
X3544462D01*
Y1251550D01*
X3543729D01*
Y1268405D01*
X3544462D01*
Y1271336D01*
X3545195D01*
Y1273534D01*
X3545927D01*
Y1275000D01*
X3546660D01*
Y1277198D01*
X3547393D01*
Y1277931D01*
X3548126D01*
Y1279397D01*
X3548859D01*
Y1280862D01*
X3549591D01*
Y1281595D01*
X3550324D01*
Y1283061D01*
X3551057D01*
Y1283794D01*
X3551790D01*
Y1284527D01*
X3552523D01*
Y1285259D01*
X3553256D01*
Y1285992D01*
X3553988D01*
Y1286725D01*
X3554721D01*
Y1287458D01*
X3555454D01*
Y1288191D01*
X3556187D01*
Y1288924D01*
X3557652D01*
Y1289656D01*
X3558385D01*
Y1290389D01*
X3559851D01*
Y1291122D01*
X3560584D01*
Y1291855D01*
X3562049D01*
Y1292588D01*
X3563515D01*
Y1293320D01*
X3564981D01*
Y1294053D01*
X3566446D01*
Y1294786D01*
X3568645D01*
Y1295519D01*
X3570110D01*
Y1296252D01*
X3573041D01*
Y1296985D01*
X3575973D01*
Y1297717D01*
X3579637D01*
Y1298450D01*
X3587698D01*
Y1299183D01*
X3595026D01*
Y1298450D01*
X3603087D01*
Y1297717D01*
X3606751D01*
Y1296985D01*
X3610415D01*
Y1296252D01*
X3612613D01*
Y1295519D01*
X3614812D01*
Y1294786D01*
X3616278D01*
Y1294053D01*
X3618476D01*
Y1293320D01*
X3619942D01*
Y1292588D01*
X3621407D01*
Y1291855D01*
X3622873D01*
Y1291122D01*
X3623606D01*
Y1290389D01*
X3625071D01*
Y1289656D01*
X3626537D01*
Y1288924D01*
X3627270D01*
Y1288191D01*
X3628003D01*
Y1287458D01*
X3629468D01*
Y1286725D01*
X3630201D01*
Y1285992D01*
X3630934D01*
Y1285259D01*
X3631667D01*
Y1284527D01*
X3632399D01*
Y1283794D01*
X3633865D01*
Y1283061D01*
X3634598D01*
Y1281595D01*
X3635331D01*
Y1280130D01*
X3634598D01*
Y1279397D01*
X3633865D01*
Y1278664D01*
X3633132D01*
Y1277931D01*
X3632399D01*
Y1277198D01*
X3631667D01*
Y1276466D01*
X3630934D01*
Y1275733D01*
X3630201D01*
Y1275000D01*
X3629468D01*
Y1274267D01*
X3628735D01*
Y1273534D01*
X3628003D01*
Y1272802D01*
X3627270D01*
Y1272069D01*
X3626537D01*
Y1271336D01*
X3625804D01*
Y1270603D01*
X3625071D01*
Y1269870D01*
X3624338D01*
Y1269138D01*
X3623606D01*
Y1268405D01*
X3622873D01*
Y1267672D01*
X3622140D01*
Y1266939D01*
X3621407D01*
Y1266206D01*
X3620675D01*
Y1265473D01*
X3619942D01*
Y1264741D01*
X3619209D01*
Y1264008D01*
X3618476D01*
Y1263275D01*
X3617743D01*
Y1262542D01*
X3617010D01*
Y1263275D01*
X3616278D01*
Y1264008D01*
X3615545D01*
Y1264741D01*
X3614812D01*
Y1265473D01*
X3614079D01*
Y1266206D01*
X3613346D01*
Y1266939D01*
X3611881D01*
Y1267672D01*
X3611148D01*
Y1268405D01*
X3610415D01*
Y1269138D01*
X3608949D01*
Y1269870D01*
X3608217D01*
Y1270603D01*
X3606751D01*
Y1271336D01*
X3604552D01*
Y1272069D01*
X3603087D01*
Y1272802D01*
X3600889D01*
Y1273534D01*
X3597224D01*
Y1274267D01*
X3582568D01*
Y1273534D01*
X3579637D01*
Y1272802D01*
X3578171D01*
Y1272069D01*
X3576706D01*
Y1271336D01*
X3575240D01*
Y1270603D01*
X3574507D01*
Y1269870D01*
X3573774D01*
Y1269138D01*
X3573041D01*
Y1267672D01*
X3572309D01*
Y1266939D01*
X3571576D01*
Y1264008D01*
X3570843D01*
Y1258878D01*
X3571576D01*
Y1255947D01*
X3572309D01*
Y1254481D01*
X3573041D01*
Y1253748D01*
X3573774D01*
Y1253016D01*
X3574507D01*
Y1252283D01*
X3575240D01*
Y1251550D01*
X3575973D01*
Y1250817D01*
X3577438D01*
Y1250084D01*
X3579637D01*
Y1249351D01*
X3581835D01*
Y1248619D01*
X3584767D01*
Y1247886D01*
X3589896D01*
Y1247153D01*
X3594293D01*
Y1246420D01*
X3598690D01*
Y1245688D01*
X3603087D01*
Y1244955D01*
D02*
G37*
D10*
X3047165Y2730512D02*
G03*
X3047165Y2730512I-4921J0D01*
G01*
D11*
X2971378Y2775787D02*
G03*
X2971378Y2775787I-7874J0D01*
G01*
D12*
X400000Y975000D02*
X1400000D01*
X400000Y1975000D02*
X1400000D01*
Y975000D02*
Y1975000D01*
X400000Y975000D02*
Y1975000D01*
X1450000Y975000D02*
X2450000D01*
X1450000Y1975000D02*
X2450000D01*
Y975000D02*
Y1975000D01*
X1450000Y975000D02*
Y1975000D01*
X400000Y2025000D02*
X1400000D01*
X400000Y3025000D02*
X1400000D01*
Y2025000D02*
Y3025000D01*
X400000Y2025000D02*
Y3025000D01*
X1450000Y2025000D02*
X2450000D01*
X1450000Y3025000D02*
X2450000D01*
Y2025000D02*
Y3025000D01*
X1450000Y2025000D02*
Y3025000D01*
X2740000Y2229372D02*
Y2301349D01*
X2763992Y2277356D01*
X2787985Y2301349D01*
Y2229372D01*
X2811977Y2301349D02*
X2835969D01*
X2823973D01*
Y2229372D01*
X2811977D01*
X2835969D01*
X2871957Y2301349D02*
X2919942D01*
X2895950D01*
Y2229372D01*
X2943934D02*
Y2241368D01*
X2955930D01*
Y2229372D01*
X2943934D01*
X3003915D02*
Y2277356D01*
X3039903D01*
X3051899Y2265360D01*
Y2229372D01*
X3087887Y2277356D02*
X3111880D01*
X3123876Y2265360D01*
Y2229372D01*
X3087887D01*
X3075891Y2241368D01*
X3087887Y2253364D01*
X3123876D01*
X3147868Y2229372D02*
Y2277356D01*
X3183856D01*
X3195852Y2265360D01*
Y2229372D01*
X3231841D02*
X3255833D01*
X3267829Y2241368D01*
Y2265360D01*
X3255833Y2277356D01*
X3231841D01*
X3219845Y2265360D01*
Y2241368D01*
X3231841Y2229372D01*
X2787985Y2154981D02*
X2775988Y2166977D01*
X2751996D01*
X2740000Y2154981D01*
Y2142985D01*
X2751996Y2130988D01*
X2775988D01*
X2787985Y2118992D01*
Y2106996D01*
X2775988Y2095000D01*
X2751996D01*
X2740000Y2106996D01*
X2823973Y2095000D02*
X2847965D01*
X2859961Y2106996D01*
Y2130988D01*
X2847965Y2142985D01*
X2823973D01*
X2811977Y2130988D01*
Y2106996D01*
X2823973Y2095000D01*
X2883953D02*
X2907946D01*
X2895950D01*
Y2166977D01*
X2883953D01*
X2955930Y2142985D02*
X2979922D01*
X2991919Y2130988D01*
Y2095000D01*
X2955930D01*
X2943934Y2106996D01*
X2955930Y2118992D01*
X2991919D01*
X3015911Y2142985D02*
Y2095000D01*
Y2118992D01*
X3027907Y2130988D01*
X3039903Y2142985D01*
X3051899D01*
X3159864Y2095000D02*
Y2166977D01*
X3195852D01*
X3207849Y2154981D01*
Y2130988D01*
X3195852Y2118992D01*
X3159864D01*
X3279825Y2154981D02*
X3267829Y2166977D01*
X3243837D01*
X3231841Y2154981D01*
Y2106996D01*
X3243837Y2095000D01*
X3267829D01*
X3279825Y2106996D01*
X3303818Y2166977D02*
Y2095000D01*
X3339806D01*
X3351802Y2106996D01*
Y2118992D01*
X3339806Y2130988D01*
X3303818D01*
X3339806D01*
X3351802Y2142985D01*
Y2154981D01*
X3339806Y2166977D01*
X3303818D01*
D13*
X2854643Y3010672D02*
X2965357D01*
X2854643Y2939328D02*
X2965357D01*
X2995000Y2744291D02*
Y2905709D01*
X2920197Y2744291D02*
Y2905709D01*
Y2744291D02*
X2995000D01*
X2920197Y2905709D02*
X2995000D01*
X3100551Y2749484D02*
Y2830516D01*
X3169449Y2749484D02*
Y2830516D01*
X2933270Y2589643D02*
Y2700357D01*
X2861927Y2589643D02*
Y2700357D01*
X2555551Y2813740D02*
Y2906260D01*
X2799646Y2813740D02*
Y2906260D01*
X2758895Y2612300D02*
Y2707265D01*
X2826302Y2612300D02*
Y2707265D01*
D14*
X2742000Y1873742D02*
Y1825758D01*
X2765992D01*
X2773990Y1833755D01*
Y1865745D01*
X2765992Y1873742D01*
X2742000D01*
X2813977Y1825758D02*
X2797982D01*
X2789985Y1833755D01*
Y1849750D01*
X2797982Y1857747D01*
X2813977D01*
X2821974Y1849750D01*
Y1841752D01*
X2789985D01*
X2837969Y1825758D02*
X2861961D01*
X2869959Y1833755D01*
X2861961Y1841752D01*
X2845966D01*
X2837969Y1849750D01*
X2845966Y1857747D01*
X2869959D01*
X2885954Y1825758D02*
X2901948D01*
X2893951D01*
Y1857747D01*
X2885954D01*
X2941935Y1809763D02*
X2949933D01*
X2957930Y1817760D01*
Y1857747D01*
X2933938D01*
X2925941Y1849750D01*
Y1833755D01*
X2933938Y1825758D01*
X2957930D01*
X2973925D02*
Y1857747D01*
X2997917D01*
X3005915Y1849750D01*
Y1825758D01*
X3045902D02*
X3029907D01*
X3021910Y1833755D01*
Y1849750D01*
X3029907Y1857747D01*
X3045902D01*
X3053899Y1849750D01*
Y1841752D01*
X3021910D01*
X3101884Y1873742D02*
Y1825758D01*
X3077892D01*
X3069894Y1833755D01*
Y1849750D01*
X3077892Y1857747D01*
X3101884D01*
X3165863Y1873742D02*
Y1825758D01*
X3189855D01*
X3197853Y1833755D01*
Y1841752D01*
Y1849750D01*
X3189855Y1857747D01*
X3165863D01*
X3213848D02*
Y1833755D01*
X3221845Y1825758D01*
X3245837D01*
Y1817760D01*
X3237840Y1809763D01*
X3229842D01*
X3245837Y1825758D02*
Y1857747D01*
X2742000Y1723381D02*
Y1755371D01*
X2757995Y1771366D01*
X2773990Y1755371D01*
Y1723381D01*
Y1747374D01*
X2742000D01*
X2789985Y1723381D02*
Y1755371D01*
X2813977D01*
X2821974Y1747374D01*
Y1723381D01*
X2869959Y1771366D02*
Y1723381D01*
X2845966D01*
X2837969Y1731379D01*
Y1747374D01*
X2845966Y1755371D01*
X2869959D01*
X2885954Y1723381D02*
X2901948D01*
X2893951D01*
Y1755371D01*
X2885954D01*
X3005915Y1731379D02*
Y1763369D01*
X2997917Y1771366D01*
X2981923D01*
X2973925Y1763369D01*
Y1731379D01*
X2981923Y1723381D01*
X2997917D01*
X2989920Y1739376D02*
X3005915Y1723381D01*
X2997917D02*
X3005915Y1731379D01*
X3021910Y1755371D02*
Y1731379D01*
X3029907Y1723381D01*
X3053899D01*
Y1755371D01*
X3125876D02*
X3141871D01*
X3149868Y1747374D01*
Y1723381D01*
X3125876D01*
X3117879Y1731379D01*
X3125876Y1739376D01*
X3149868D01*
X3165863Y1723381D02*
Y1755371D01*
X3189855D01*
X3197853Y1747374D01*
Y1723381D01*
X3245837Y1771366D02*
Y1723381D01*
X3221845D01*
X3213848Y1731379D01*
Y1747374D01*
X3221845Y1755371D01*
X3245837D01*
X2773990Y1684985D02*
X2742000D01*
Y1660992D01*
X2757995D01*
X2742000D01*
Y1637000D01*
X2797982Y1668990D02*
X2813977D01*
X2821974Y1660992D01*
Y1637000D01*
X2797982D01*
X2789985Y1644997D01*
X2797982Y1652995D01*
X2821974D01*
X2845966Y1676987D02*
Y1668990D01*
X2837969D01*
X2853964D01*
X2845966D01*
Y1644997D01*
X2853964Y1637000D01*
X2901948D02*
X2885954D01*
X2877956Y1644997D01*
Y1660992D01*
X2885954Y1668990D01*
X2901948D01*
X2909946Y1660992D01*
Y1652995D01*
X2877956D01*
X2925941Y1637000D02*
Y1668990D01*
X2933938D01*
X2941935Y1660992D01*
Y1637000D01*
Y1660992D01*
X2949933Y1668990D01*
X2957930Y1660992D01*
Y1637000D01*
X2981923Y1668990D02*
X2997917D01*
X3005915Y1660992D01*
Y1637000D01*
X2981923D01*
X2973925Y1644997D01*
X2981923Y1652995D01*
X3005915D01*
X3069894Y1684985D02*
X3101884D01*
Y1676987D01*
X3069894Y1644997D01*
Y1637000D01*
X3101884D01*
X3125876Y1668990D02*
X3141871D01*
X3149868Y1660992D01*
Y1637000D01*
X3125876D01*
X3117879Y1644997D01*
X3125876Y1652995D01*
X3149868D01*
X3165863Y1637000D02*
Y1668990D01*
X3173860D01*
X3181858Y1660992D01*
Y1637000D01*
Y1660992D01*
X3189855Y1668990D01*
X3197853Y1660992D01*
Y1637000D01*
X3221845Y1668990D02*
X3237840D01*
X3245837Y1660992D01*
Y1637000D01*
X3221845D01*
X3213848Y1644997D01*
X3221845Y1652995D01*
X3245837D01*
X3261832Y1637000D02*
Y1668990D01*
X3285824D01*
X3293822Y1660992D01*
Y1637000D01*
D15*
X3033342Y2499005D02*
Y2530995D01*
X3049337D01*
X3054668Y2525663D01*
Y2515000D01*
X3049337Y2509668D01*
X3033342D01*
X3044005D02*
X3054668Y2499005D01*
X3086658Y2530995D02*
X3065332D01*
Y2515000D01*
X3075995Y2520332D01*
X3081327D01*
X3086658Y2515000D01*
Y2504337D01*
X3081327Y2499005D01*
X3070663D01*
X3065332Y2504337D01*
X3033342Y2554005D02*
Y2585995D01*
X3049337D01*
X3054668Y2580663D01*
Y2570000D01*
X3049337Y2564668D01*
X3033342D01*
X3044005D02*
X3054668Y2554005D01*
X3081327D02*
Y2585995D01*
X3065332Y2570000D01*
X3086658D01*
X3016272Y2965995D02*
Y2939337D01*
X3021604Y2934005D01*
X3032267D01*
X3037598Y2939337D01*
Y2965995D01*
X3048262Y2934005D02*
X3058925D01*
X3053593D01*
Y2965995D01*
X3048262Y2960663D01*
X3088342Y2614005D02*
Y2645995D01*
X3104337D01*
X3109668Y2640663D01*
Y2630000D01*
X3104337Y2624668D01*
X3088342D01*
X3099005D02*
X3109668Y2614005D01*
X3120332Y2640663D02*
X3125663Y2645995D01*
X3136327D01*
X3141658Y2640663D01*
Y2635332D01*
X3136327Y2630000D01*
X3130995D01*
X3136327D01*
X3141658Y2624668D01*
Y2619337D01*
X3136327Y2614005D01*
X3125663D01*
X3120332Y2619337D01*
X2975940Y2614005D02*
Y2645995D01*
X2991935D01*
X2997267Y2640663D01*
Y2630000D01*
X2991935Y2624668D01*
X2975940D01*
X2986604D02*
X2997267Y2614005D01*
X3029256D02*
X3007930D01*
X3029256Y2635332D01*
Y2640663D01*
X3023925Y2645995D01*
X3013262D01*
X3007930Y2640663D01*
X3191272Y2874005D02*
Y2905995D01*
X3207267D01*
X3212598Y2900663D01*
Y2890000D01*
X3207267Y2884668D01*
X3191272D01*
X3201935D02*
X3212598Y2874005D01*
X3223262D02*
X3233925D01*
X3228593D01*
Y2905995D01*
X3223262Y2900663D01*
X2658674Y2705995D02*
Y2674005D01*
X2680000D01*
X2690663D02*
X2701327D01*
X2695995D01*
Y2705995D01*
X2690663Y2700663D01*
X2894668Y2555663D02*
X2889337Y2560995D01*
X2878674D01*
X2873342Y2555663D01*
Y2534337D01*
X2878674Y2529005D01*
X2889337D01*
X2894668Y2534337D01*
X2921327Y2529005D02*
Y2560995D01*
X2905332Y2545000D01*
X2926658D01*
X3214668Y2805663D02*
X3209337Y2810995D01*
X3198674D01*
X3193342Y2805663D01*
Y2784337D01*
X3198674Y2779005D01*
X3209337D01*
X3214668Y2784337D01*
X3225332Y2805663D02*
X3230663Y2810995D01*
X3241327D01*
X3246658Y2805663D01*
Y2800332D01*
X3241327Y2795000D01*
X3235995D01*
X3241327D01*
X3246658Y2789668D01*
Y2784337D01*
X3241327Y2779005D01*
X3230663D01*
X3225332Y2784337D01*
X2789668Y2580663D02*
X2784337Y2585995D01*
X2773674D01*
X2768342Y2580663D01*
Y2559337D01*
X2773674Y2554005D01*
X2784337D01*
X2789668Y2559337D01*
X2821658Y2554005D02*
X2800332D01*
X2821658Y2575332D01*
Y2580663D01*
X2816327Y2585995D01*
X2805663D01*
X2800332Y2580663D01*
X3035000Y3020663D02*
X3029668Y3025995D01*
X3019005D01*
X3013674Y3020663D01*
Y2999337D01*
X3019005Y2994005D01*
X3029668D01*
X3035000Y2999337D01*
X3045663Y2994005D02*
X3056327D01*
X3050995D01*
Y3025995D01*
X3045663Y3020663D01*
M02*
