G04*
G04 #@! TF.GenerationSoftware,Altium Limited,Altium Designer,23.3.1 (30)*
G04*
G04 Layer_Color=16711935*
%FSLAX26Y26*%
%MOIN*%
G70*
G04*
G04 #@! TF.SameCoordinates,F690B318-04D5-434D-AB11-BD4B9249E199*
G04*
G04*
G04 #@! TF.FilePolarity,Positive*
G04*
G01*
G75*
%ADD13C,0.007874*%
%ADD46C,0.003937*%
D13*
X2878504Y2959252D02*
Y2990748D01*
Y2959252D02*
X2941496D01*
Y2990748D01*
X2878504D02*
X2941496D01*
X3119252Y2758504D02*
X3150748D01*
Y2821496D01*
X3119252D02*
X3150748D01*
X3119252Y2758504D02*
Y2821496D01*
X2881850Y2676496D02*
X2913346D01*
X2881850Y2613504D02*
Y2676496D01*
Y2613504D02*
X2913346D01*
Y2676496D01*
X2555551Y2982047D02*
X2799646D01*
X2555551Y2737953D02*
Y2982047D01*
Y2737953D02*
X2799646D01*
Y2982047D01*
X2776850Y2628286D02*
X2808346D01*
Y2691279D01*
X2776850D02*
X2808346D01*
X2776850Y2628286D02*
Y2691279D01*
D46*
X3002874Y2779724D02*
G03*
X3002874Y2779724I-19685J0D01*
G01*
X3116299Y2577874D02*
X3153701D01*
X3116299Y2508976D02*
X3153701D01*
Y2577874D01*
X3116299Y2508976D02*
Y2577874D01*
X2961299Y2579449D02*
X2998701D01*
X2961299Y2510551D02*
X2998701D01*
Y2579449D01*
X2961299Y2510551D02*
Y2579449D01*
X3079134Y2667283D02*
Y2702716D01*
X3146063Y2667283D02*
Y2702716D01*
X3079134D02*
X3146063D01*
X3079134Y2667283D02*
X3146063D01*
X3018622Y2744291D02*
Y2905709D01*
X2896575Y2744291D02*
Y2905709D01*
Y2744291D02*
X3018622D01*
X2896575Y2905709D02*
X3018622D01*
X3036653Y2666299D02*
Y2703701D01*
X2967756Y2666299D02*
Y2703701D01*
Y2666299D02*
X3036653D01*
X2967756Y2703701D02*
X3036653D01*
X3113898Y2924449D02*
X3151299D01*
X3113898Y2855551D02*
X3151299D01*
Y2924449D01*
X3113898Y2855551D02*
Y2924449D01*
M02*
