G04*
G04 #@! TF.GenerationSoftware,Altium Limited,Altium Designer,23.3.1 (30)*
G04*
G04 Layer_Color=32768*
%FSLAX26Y26*%
%MOIN*%
G70*
G04*
G04 #@! TF.SameCoordinates,F690B318-04D5-434D-AB11-BD4B9249E199*
G04*
G04*
G04 #@! TF.FilePolarity,Positive*
G04*
G01*
G75*
%ADD13C,0.007874*%
%ADD46C,0.003937*%
%ADD47C,0.001968*%
D13*
X2834958Y2935391D02*
Y3014609D01*
Y2935391D02*
X2985042D01*
Y3014609D01*
X2834958D02*
X2985042D01*
X3112362Y2745547D02*
X3157638D01*
Y2834453D01*
X3112362D02*
X3157638D01*
X3112362Y2745547D02*
Y2834453D01*
X2857990Y2720042D02*
X2937207D01*
X2857990Y2569958D02*
Y2720042D01*
Y2569958D02*
X2937207D01*
Y2720042D01*
X2551614Y2987953D02*
X2803583D01*
X2551614Y2732047D02*
Y2987953D01*
Y2732047D02*
X2803583D01*
Y2987953D01*
X2764800Y2602457D02*
X2820396D01*
Y2717108D01*
X2764800D02*
X2820396D01*
X2764800Y2602457D02*
Y2717108D01*
D46*
X3135000Y2524724D02*
Y2562126D01*
X3116299Y2543425D02*
X3153701D01*
X2980000Y2526299D02*
Y2563701D01*
X2961299Y2545000D02*
X2998701D01*
X3094882Y2685000D02*
X3130315D01*
X3112598Y2667283D02*
Y2702716D01*
X2937913Y2825000D02*
X2977284D01*
X2957598Y2805315D02*
Y2844685D01*
X2983504Y2685000D02*
X3020905D01*
X3002205Y2666299D02*
Y2703701D01*
X3132598Y2871299D02*
Y2908701D01*
X3113898Y2890000D02*
X3151299D01*
D47*
X3105472Y2596575D02*
X3164528D01*
X3105472Y2490276D02*
X3164528D01*
Y2596575D01*
X3105472Y2490276D02*
Y2596575D01*
X2950472Y2598150D02*
X3009528D01*
X2950472Y2491850D02*
X3009528D01*
Y2598150D01*
X2950472Y2491850D02*
Y2598150D01*
X3071260Y2663346D02*
Y2706653D01*
X3153937Y2663346D02*
Y2706653D01*
X3071260D02*
X3153937D01*
X3071260Y2663346D02*
X3153937D01*
X3082598Y2732480D02*
Y2917520D01*
X2832598Y2732480D02*
Y2917520D01*
Y2732480D02*
X3082598D01*
X2832598Y2917520D02*
X3082598D01*
X3045512Y2661378D02*
Y2708622D01*
X2958898Y2661378D02*
Y2708622D01*
Y2661378D02*
X3045512D01*
X2958898Y2708622D02*
X3045512D01*
X3108976Y2933307D02*
X3156220D01*
X3108976Y2846693D02*
X3156220D01*
Y2933307D01*
X3108976Y2846693D02*
Y2933307D01*
M02*
